<mxfile host="app.diagrams.net" agent="Mozilla/5.0 (Windows NT 10.0; Win64; x64) AppleWebKit/537.36 (KHTML, like Gecko) Chrome/136.0.0.0 Safari/537.36 Edg/136.0.0.0" version="27.0.2">
  <diagram name="Page-1" id="yZKAgdrOiV2K48s5ITR2">
    <mxGraphModel dx="1034" dy="604" grid="1" gridSize="10" guides="1" tooltips="1" connect="1" arrows="1" fold="1" page="1" pageScale="1" pageWidth="850" pageHeight="1100" math="0" shadow="0">
      <root>
        <mxCell id="0" />
        <mxCell id="1" parent="0" />
        <mxCell id="a0UzMVncfs__ktyyKjVX-14" value="Login" style="text;html=1;align=center;verticalAlign=middle;whiteSpace=wrap;rounded=0;" parent="1" vertex="1">
          <mxGeometry x="180" y="50" width="60" height="30" as="geometry" />
        </mxCell>
        <mxCell id="a0UzMVncfs__ktyyKjVX-15" value="Client" style="rounded=0;whiteSpace=wrap;html=1;" parent="1" vertex="1">
          <mxGeometry x="170" y="200" width="120" height="60" as="geometry" />
        </mxCell>
        <mxCell id="a0UzMVncfs__ktyyKjVX-16" value="Server" style="rounded=0;whiteSpace=wrap;html=1;" parent="1" vertex="1">
          <mxGeometry x="460" y="200" width="120" height="60" as="geometry" />
        </mxCell>
        <mxCell id="a0UzMVncfs__ktyyKjVX-17" value="" style="endArrow=classic;html=1;rounded=0;entryX=0;entryY=0.167;entryDx=0;entryDy=0;entryPerimeter=0;exitX=0;exitY=0.167;exitDx=0;exitDy=0;exitPerimeter=0;" parent="1" source="a0UzMVncfs__ktyyKjVX-16" edge="1">
          <mxGeometry width="50" height="50" relative="1" as="geometry">
            <mxPoint x="450" y="210" as="sourcePoint" />
            <mxPoint x="290" y="210" as="targetPoint" />
          </mxGeometry>
        </mxCell>
        <mxCell id="a0UzMVncfs__ktyyKjVX-18" value="" style="endArrow=classic;html=1;rounded=0;entryX=0;entryY=0.167;entryDx=0;entryDy=0;entryPerimeter=0;" parent="1" edge="1">
          <mxGeometry width="50" height="50" relative="1" as="geometry">
            <mxPoint x="290" y="250" as="sourcePoint" />
            <mxPoint x="460" y="250" as="targetPoint" />
          </mxGeometry>
        </mxCell>
        <mxCell id="a0UzMVncfs__ktyyKjVX-19" value="" style="endArrow=none;dashed=1;html=1;rounded=0;" parent="1" edge="1">
          <mxGeometry width="50" height="50" relative="1" as="geometry">
            <mxPoint x="380" y="210" as="sourcePoint" />
            <mxPoint x="380" y="160" as="targetPoint" />
          </mxGeometry>
        </mxCell>
        <mxCell id="a0UzMVncfs__ktyyKjVX-20" value="" style="endArrow=none;dashed=1;html=1;rounded=0;" parent="1" edge="1">
          <mxGeometry width="50" height="50" relative="1" as="geometry">
            <mxPoint x="380" y="300" as="sourcePoint" />
            <mxPoint x="380" y="250" as="targetPoint" />
          </mxGeometry>
        </mxCell>
        <mxCell id="a0UzMVncfs__ktyyKjVX-21" value="Message&lt;div&gt;type = LOGIN&lt;/div&gt;&lt;div&gt;payload =&lt;/div&gt;" style="rounded=0;whiteSpace=wrap;html=1;" parent="1" vertex="1">
          <mxGeometry x="320" y="290" width="120" height="60" as="geometry" />
        </mxCell>
        <mxCell id="a0UzMVncfs__ktyyKjVX-22" value="Message&lt;div&gt;type = LOGIN&lt;/div&gt;&lt;div&gt;payload =&amp;nbsp;&lt;/div&gt;" style="rounded=0;whiteSpace=wrap;html=1;" parent="1" vertex="1">
          <mxGeometry x="320" y="100" width="120" height="60" as="geometry" />
        </mxCell>
        <mxCell id="a0UzMVncfs__ktyyKjVX-23" value="PayloadCredentials&lt;div&gt;username = &quot;UserName&quot;&lt;/div&gt;&lt;div&gt;password = 123456789&lt;/div&gt;" style="rounded=0;whiteSpace=wrap;html=1;" parent="1" vertex="1">
          <mxGeometry x="450" y="370" width="180" height="60" as="geometry" />
        </mxCell>
        <mxCell id="a0UzMVncfs__ktyyKjVX-25" value="" style="endArrow=none;dashed=1;html=1;rounded=0;exitX=-0.006;exitY=0.061;exitDx=0;exitDy=0;exitPerimeter=0;" parent="1" source="a0UzMVncfs__ktyyKjVX-23" edge="1">
          <mxGeometry width="50" height="50" relative="1" as="geometry">
            <mxPoint x="440" y="380" as="sourcePoint" />
            <mxPoint x="400" y="330" as="targetPoint" />
          </mxGeometry>
        </mxCell>
        <mxCell id="a0UzMVncfs__ktyyKjVX-29" value="" style="endArrow=none;dashed=1;html=1;rounded=0;" parent="1" edge="1">
          <mxGeometry width="50" height="50" relative="1" as="geometry">
            <mxPoint x="410" y="150" as="sourcePoint" />
            <mxPoint x="460" y="60" as="targetPoint" />
          </mxGeometry>
        </mxCell>
        <mxCell id="a0UzMVncfs__ktyyKjVX-30" value="PayloadConnectionResult&lt;div&gt;clientID = 0&lt;/div&gt;" style="rounded=0;whiteSpace=wrap;html=1;" parent="1" vertex="1">
          <mxGeometry x="460" width="180" height="60" as="geometry" />
        </mxCell>
        <mxCell id="a0UzMVncfs__ktyyKjVX-47" value="Signup" style="text;html=1;align=center;verticalAlign=middle;whiteSpace=wrap;rounded=0;" parent="1" vertex="1">
          <mxGeometry x="730" y="60" width="60" height="30" as="geometry" />
        </mxCell>
        <mxCell id="a0UzMVncfs__ktyyKjVX-48" value="Client" style="rounded=0;whiteSpace=wrap;html=1;" parent="1" vertex="1">
          <mxGeometry x="720" y="210" width="120" height="60" as="geometry" />
        </mxCell>
        <mxCell id="a0UzMVncfs__ktyyKjVX-49" value="Server" style="rounded=0;whiteSpace=wrap;html=1;" parent="1" vertex="1">
          <mxGeometry x="1010" y="210" width="120" height="60" as="geometry" />
        </mxCell>
        <mxCell id="a0UzMVncfs__ktyyKjVX-50" value="" style="endArrow=classic;html=1;rounded=0;entryX=0;entryY=0.167;entryDx=0;entryDy=0;entryPerimeter=0;exitX=0;exitY=0.167;exitDx=0;exitDy=0;exitPerimeter=0;" parent="1" source="a0UzMVncfs__ktyyKjVX-49" edge="1">
          <mxGeometry width="50" height="50" relative="1" as="geometry">
            <mxPoint x="1000" y="220" as="sourcePoint" />
            <mxPoint x="840" y="220" as="targetPoint" />
          </mxGeometry>
        </mxCell>
        <mxCell id="a0UzMVncfs__ktyyKjVX-51" value="" style="endArrow=classic;html=1;rounded=0;entryX=0;entryY=0.167;entryDx=0;entryDy=0;entryPerimeter=0;" parent="1" edge="1">
          <mxGeometry width="50" height="50" relative="1" as="geometry">
            <mxPoint x="840" y="260" as="sourcePoint" />
            <mxPoint x="1010" y="260" as="targetPoint" />
          </mxGeometry>
        </mxCell>
        <mxCell id="a0UzMVncfs__ktyyKjVX-52" value="" style="endArrow=none;dashed=1;html=1;rounded=0;" parent="1" edge="1">
          <mxGeometry width="50" height="50" relative="1" as="geometry">
            <mxPoint x="930" y="220" as="sourcePoint" />
            <mxPoint x="930" y="170" as="targetPoint" />
          </mxGeometry>
        </mxCell>
        <mxCell id="a0UzMVncfs__ktyyKjVX-53" value="" style="endArrow=none;dashed=1;html=1;rounded=0;" parent="1" edge="1">
          <mxGeometry width="50" height="50" relative="1" as="geometry">
            <mxPoint x="930" y="310" as="sourcePoint" />
            <mxPoint x="930" y="260" as="targetPoint" />
          </mxGeometry>
        </mxCell>
        <mxCell id="a0UzMVncfs__ktyyKjVX-54" value="Message&lt;div&gt;type = SIGNUP&lt;/div&gt;&lt;div&gt;payload =&lt;/div&gt;" style="rounded=0;whiteSpace=wrap;html=1;" parent="1" vertex="1">
          <mxGeometry x="870" y="300" width="120" height="60" as="geometry" />
        </mxCell>
        <mxCell id="a0UzMVncfs__ktyyKjVX-55" value="Message&lt;div&gt;type = SIGNUP&lt;/div&gt;&lt;div&gt;payload =&amp;nbsp;&lt;/div&gt;" style="rounded=0;whiteSpace=wrap;html=1;" parent="1" vertex="1">
          <mxGeometry x="870" y="110" width="120" height="60" as="geometry" />
        </mxCell>
        <mxCell id="a0UzMVncfs__ktyyKjVX-56" value="PayloadCredentials&lt;div&gt;username = &quot;UserName&quot;&lt;/div&gt;&lt;div&gt;password = 123456789&lt;/div&gt;" style="rounded=0;whiteSpace=wrap;html=1;" parent="1" vertex="1">
          <mxGeometry x="1000" y="380" width="180" height="60" as="geometry" />
        </mxCell>
        <mxCell id="a0UzMVncfs__ktyyKjVX-57" value="" style="endArrow=none;dashed=1;html=1;rounded=0;exitX=-0.006;exitY=0.061;exitDx=0;exitDy=0;exitPerimeter=0;" parent="1" source="a0UzMVncfs__ktyyKjVX-56" edge="1">
          <mxGeometry width="50" height="50" relative="1" as="geometry">
            <mxPoint x="990" y="390" as="sourcePoint" />
            <mxPoint x="950" y="340" as="targetPoint" />
          </mxGeometry>
        </mxCell>
        <mxCell id="a0UzMVncfs__ktyyKjVX-58" value="" style="endArrow=none;dashed=1;html=1;rounded=0;" parent="1" edge="1">
          <mxGeometry width="50" height="50" relative="1" as="geometry">
            <mxPoint x="960" y="160" as="sourcePoint" />
            <mxPoint x="1010" y="70" as="targetPoint" />
          </mxGeometry>
        </mxCell>
        <mxCell id="a0UzMVncfs__ktyyKjVX-59" value="PayloadConnectionResult&lt;div&gt;clientID = 0&lt;/div&gt;" style="rounded=0;whiteSpace=wrap;html=1;" parent="1" vertex="1">
          <mxGeometry x="1010" y="10" width="180" height="60" as="geometry" />
        </mxCell>
        <mxCell id="a0UzMVncfs__ktyyKjVX-63" value="ClientActions:&lt;div&gt;1) Login&lt;/div&gt;&lt;div&gt;2) Signup&lt;/div&gt;" style="rounded=0;whiteSpace=wrap;html=1;" parent="1" vertex="1">
          <mxGeometry x="290" y="500" width="120" height="60" as="geometry" />
        </mxCell>
        <mxCell id="a0UzMVncfs__ktyyKjVX-64" value="Username:_&lt;div&gt;Password:_&lt;/div&gt;" style="rounded=0;whiteSpace=wrap;html=1;" parent="1" vertex="1">
          <mxGeometry x="460" y="630" width="120" height="60" as="geometry" />
        </mxCell>
        <mxCell id="a0UzMVncfs__ktyyKjVX-66" value="" style="endArrow=classic;html=1;rounded=0;entryX=0.5;entryY=0;entryDx=0;entryDy=0;" parent="1" target="a0UzMVncfs__ktyyKjVX-64" edge="1">
          <mxGeometry width="50" height="50" relative="1" as="geometry">
            <mxPoint x="410" y="560" as="sourcePoint" />
            <mxPoint x="460" y="510" as="targetPoint" />
          </mxGeometry>
        </mxCell>
        <mxCell id="a0UzMVncfs__ktyyKjVX-67" value="2" style="edgeLabel;html=1;align=center;verticalAlign=middle;resizable=0;points=[];" parent="a0UzMVncfs__ktyyKjVX-66" vertex="1" connectable="0">
          <mxGeometry x="-0.3278" relative="1" as="geometry">
            <mxPoint as="offset" />
          </mxGeometry>
        </mxCell>
        <mxCell id="a0UzMVncfs__ktyyKjVX-68" value="" style="endArrow=classic;html=1;rounded=0;entryX=0.5;entryY=0;entryDx=0;entryDy=0;" parent="1" target="a0UzMVncfs__ktyyKjVX-70" edge="1">
          <mxGeometry width="50" height="50" relative="1" as="geometry">
            <mxPoint x="315" y="560" as="sourcePoint" />
            <mxPoint x="220" y="640" as="targetPoint" />
          </mxGeometry>
        </mxCell>
        <mxCell id="a0UzMVncfs__ktyyKjVX-69" value="1" style="edgeLabel;html=1;align=center;verticalAlign=middle;resizable=0;points=[];" parent="a0UzMVncfs__ktyyKjVX-68" vertex="1" connectable="0">
          <mxGeometry x="-0.3278" relative="1" as="geometry">
            <mxPoint as="offset" />
          </mxGeometry>
        </mxCell>
        <mxCell id="a0UzMVncfs__ktyyKjVX-70" value="Username:_&lt;div&gt;Password:_&lt;/div&gt;" style="rounded=0;whiteSpace=wrap;html=1;" parent="1" vertex="1">
          <mxGeometry x="180" y="630" width="120" height="60" as="geometry" />
        </mxCell>
        <mxCell id="SE39QQxyjO5Wag_USAo9-1" value="Synchronize(1)" style="text;html=1;align=center;verticalAlign=middle;whiteSpace=wrap;rounded=0;" parent="1" vertex="1">
          <mxGeometry x="730" y="500" width="80" height="30" as="geometry" />
        </mxCell>
        <mxCell id="SE39QQxyjO5Wag_USAo9-3" value="Client" style="rounded=0;whiteSpace=wrap;html=1;" parent="1" vertex="1">
          <mxGeometry x="730" y="690" width="120" height="60" as="geometry" />
        </mxCell>
        <mxCell id="SE39QQxyjO5Wag_USAo9-4" value="Server" style="rounded=0;whiteSpace=wrap;html=1;" parent="1" vertex="1">
          <mxGeometry x="1020" y="690" width="120" height="60" as="geometry" />
        </mxCell>
        <mxCell id="SE39QQxyjO5Wag_USAo9-5" value="" style="endArrow=classic;html=1;rounded=0;entryX=0;entryY=0.167;entryDx=0;entryDy=0;entryPerimeter=0;exitX=0;exitY=0.167;exitDx=0;exitDy=0;exitPerimeter=0;" parent="1" source="SE39QQxyjO5Wag_USAo9-4" edge="1">
          <mxGeometry width="50" height="50" relative="1" as="geometry">
            <mxPoint x="1010" y="700" as="sourcePoint" />
            <mxPoint x="850" y="700" as="targetPoint" />
          </mxGeometry>
        </mxCell>
        <mxCell id="SE39QQxyjO5Wag_USAo9-6" value="" style="endArrow=classic;html=1;rounded=0;entryX=0;entryY=0.167;entryDx=0;entryDy=0;entryPerimeter=0;" parent="1" edge="1">
          <mxGeometry width="50" height="50" relative="1" as="geometry">
            <mxPoint x="850" y="740" as="sourcePoint" />
            <mxPoint x="1020" y="740" as="targetPoint" />
          </mxGeometry>
        </mxCell>
        <mxCell id="SE39QQxyjO5Wag_USAo9-7" value="" style="endArrow=none;dashed=1;html=1;rounded=0;" parent="1" edge="1">
          <mxGeometry width="50" height="50" relative="1" as="geometry">
            <mxPoint x="940" y="700" as="sourcePoint" />
            <mxPoint x="940" y="650" as="targetPoint" />
          </mxGeometry>
        </mxCell>
        <mxCell id="SE39QQxyjO5Wag_USAo9-8" value="" style="endArrow=none;dashed=1;html=1;rounded=0;" parent="1" edge="1">
          <mxGeometry width="50" height="50" relative="1" as="geometry">
            <mxPoint x="940" y="790" as="sourcePoint" />
            <mxPoint x="940" y="740" as="targetPoint" />
          </mxGeometry>
        </mxCell>
        <mxCell id="SE39QQxyjO5Wag_USAo9-9" value="Message&lt;div&gt;type = SYNCHRONIZE&lt;/div&gt;&lt;div&gt;payload =&lt;/div&gt;" style="rounded=0;whiteSpace=wrap;html=1;" parent="1" vertex="1">
          <mxGeometry x="860" y="780" width="140" height="60" as="geometry" />
        </mxCell>
        <mxCell id="SE39QQxyjO5Wag_USAo9-10" value="Message&lt;div&gt;type = SYNCHRONIZE&lt;/div&gt;&lt;div&gt;payload =&amp;nbsp;&lt;/div&gt;" style="rounded=0;whiteSpace=wrap;html=1;" parent="1" vertex="1">
          <mxGeometry x="870" y="590" width="130" height="60" as="geometry" />
        </mxCell>
        <mxCell id="SE39QQxyjO5Wag_USAo9-11" value="PayloadUserID&lt;br&gt;&lt;div&gt;clientID = 0&lt;/div&gt;&lt;div&gt;&lt;br&gt;&lt;/div&gt;" style="rounded=0;whiteSpace=wrap;html=1;" parent="1" vertex="1">
          <mxGeometry x="1010" y="860" width="180" height="60" as="geometry" />
        </mxCell>
        <mxCell id="SE39QQxyjO5Wag_USAo9-12" value="" style="endArrow=none;dashed=1;html=1;rounded=0;exitX=-0.006;exitY=0.061;exitDx=0;exitDy=0;exitPerimeter=0;" parent="1" source="SE39QQxyjO5Wag_USAo9-11" edge="1">
          <mxGeometry width="50" height="50" relative="1" as="geometry">
            <mxPoint x="1000" y="870" as="sourcePoint" />
            <mxPoint x="960" y="820" as="targetPoint" />
          </mxGeometry>
        </mxCell>
        <mxCell id="SE39QQxyjO5Wag_USAo9-13" value="" style="endArrow=none;dashed=1;html=1;rounded=0;" parent="1" edge="1">
          <mxGeometry width="50" height="50" relative="1" as="geometry">
            <mxPoint x="970" y="640" as="sourcePoint" />
            <mxPoint x="1020" y="550" as="targetPoint" />
          </mxGeometry>
        </mxCell>
        <mxCell id="SE39QQxyjO5Wag_USAo9-14" value="PayloadSynchronization&lt;div&gt;filePathsToSynchronize&lt;/div&gt;&lt;div&gt;fileChecksums&lt;/div&gt;" style="rounded=0;whiteSpace=wrap;html=1;" parent="1" vertex="1">
          <mxGeometry x="1020" y="490" width="180" height="80" as="geometry" />
        </mxCell>
        <mxCell id="SE39QQxyjO5Wag_USAo9-15" value="Upload" style="text;html=1;align=center;verticalAlign=middle;whiteSpace=wrap;rounded=0;" parent="1" vertex="1">
          <mxGeometry x="730" y="1000" width="80" height="30" as="geometry" />
        </mxCell>
        <mxCell id="SE39QQxyjO5Wag_USAo9-17" value="Client" style="rounded=0;whiteSpace=wrap;html=1;" parent="1" vertex="1">
          <mxGeometry x="740" y="1200" width="120" height="60" as="geometry" />
        </mxCell>
        <mxCell id="SE39QQxyjO5Wag_USAo9-18" value="Server" style="rounded=0;whiteSpace=wrap;html=1;" parent="1" vertex="1">
          <mxGeometry x="1030" y="1200" width="120" height="60" as="geometry" />
        </mxCell>
        <mxCell id="SE39QQxyjO5Wag_USAo9-19" value="" style="endArrow=classic;html=1;rounded=0;entryX=0;entryY=0.167;entryDx=0;entryDy=0;entryPerimeter=0;exitX=0;exitY=0.167;exitDx=0;exitDy=0;exitPerimeter=0;" parent="1" source="SE39QQxyjO5Wag_USAo9-18" edge="1">
          <mxGeometry width="50" height="50" relative="1" as="geometry">
            <mxPoint x="1020" y="1210" as="sourcePoint" />
            <mxPoint x="860" y="1210" as="targetPoint" />
          </mxGeometry>
        </mxCell>
        <mxCell id="SE39QQxyjO5Wag_USAo9-20" value="" style="endArrow=classic;html=1;rounded=0;entryX=0;entryY=0.167;entryDx=0;entryDy=0;entryPerimeter=0;" parent="1" edge="1">
          <mxGeometry width="50" height="50" relative="1" as="geometry">
            <mxPoint x="860" y="1250" as="sourcePoint" />
            <mxPoint x="1030" y="1250" as="targetPoint" />
          </mxGeometry>
        </mxCell>
        <mxCell id="SE39QQxyjO5Wag_USAo9-21" value="" style="endArrow=none;dashed=1;html=1;rounded=0;" parent="1" edge="1">
          <mxGeometry width="50" height="50" relative="1" as="geometry">
            <mxPoint x="950" y="1210" as="sourcePoint" />
            <mxPoint x="950" y="1160" as="targetPoint" />
          </mxGeometry>
        </mxCell>
        <mxCell id="SE39QQxyjO5Wag_USAo9-22" value="" style="endArrow=none;dashed=1;html=1;rounded=0;" parent="1" edge="1">
          <mxGeometry width="50" height="50" relative="1" as="geometry">
            <mxPoint x="950" y="1300" as="sourcePoint" />
            <mxPoint x="950" y="1250" as="targetPoint" />
          </mxGeometry>
        </mxCell>
        <mxCell id="SE39QQxyjO5Wag_USAo9-23" value="Message&lt;div&gt;type = UPLOAD&lt;/div&gt;&lt;div&gt;payload =&lt;/div&gt;" style="rounded=0;whiteSpace=wrap;html=1;" parent="1" vertex="1">
          <mxGeometry x="890" y="1290" width="120" height="60" as="geometry" />
        </mxCell>
        <mxCell id="SE39QQxyjO5Wag_USAo9-24" value="Message&lt;div&gt;type = SYNCHRONIZE&lt;/div&gt;&lt;div&gt;payload =&amp;nbsp;&lt;/div&gt;" style="rounded=0;whiteSpace=wrap;html=1;" parent="1" vertex="1">
          <mxGeometry x="890" y="1100" width="130" height="60" as="geometry" />
        </mxCell>
        <mxCell id="SE39QQxyjO5Wag_USAo9-25" value="PayloadCredentials&lt;div&gt;username = &quot;UserName&quot;&lt;/div&gt;&lt;div&gt;password = 123456789&lt;/div&gt;" style="rounded=0;whiteSpace=wrap;html=1;" parent="1" vertex="1">
          <mxGeometry x="1020" y="1370" width="180" height="60" as="geometry" />
        </mxCell>
        <mxCell id="SE39QQxyjO5Wag_USAo9-26" value="" style="endArrow=none;dashed=1;html=1;rounded=0;exitX=-0.006;exitY=0.061;exitDx=0;exitDy=0;exitPerimeter=0;" parent="1" source="SE39QQxyjO5Wag_USAo9-25" edge="1">
          <mxGeometry width="50" height="50" relative="1" as="geometry">
            <mxPoint x="1010" y="1380" as="sourcePoint" />
            <mxPoint x="970" y="1330" as="targetPoint" />
          </mxGeometry>
        </mxCell>
        <mxCell id="SE39QQxyjO5Wag_USAo9-27" value="" style="endArrow=none;dashed=1;html=1;rounded=0;" parent="1" edge="1">
          <mxGeometry width="50" height="50" relative="1" as="geometry">
            <mxPoint x="980" y="1150" as="sourcePoint" />
            <mxPoint x="1030" y="1060" as="targetPoint" />
          </mxGeometry>
        </mxCell>
        <mxCell id="SE39QQxyjO5Wag_USAo9-28" value="PayloadConnectionResult&lt;div&gt;clientID = 0&lt;/div&gt;" style="rounded=0;whiteSpace=wrap;html=1;" parent="1" vertex="1">
          <mxGeometry x="1030" y="1000" width="180" height="60" as="geometry" />
        </mxCell>
        <mxCell id="SE39QQxyjO5Wag_USAo9-30" value="Follow" style="text;html=1;align=center;verticalAlign=middle;whiteSpace=wrap;rounded=0;" parent="1" vertex="1">
          <mxGeometry x="1240" y="70" width="60" height="30" as="geometry" />
        </mxCell>
        <mxCell id="SE39QQxyjO5Wag_USAo9-31" value="Client" style="rounded=0;whiteSpace=wrap;html=1;" parent="1" vertex="1">
          <mxGeometry x="1230" y="220" width="120" height="60" as="geometry" />
        </mxCell>
        <mxCell id="SE39QQxyjO5Wag_USAo9-32" value="Server" style="rounded=0;whiteSpace=wrap;html=1;" parent="1" vertex="1">
          <mxGeometry x="1520" y="220" width="120" height="60" as="geometry" />
        </mxCell>
        <mxCell id="SE39QQxyjO5Wag_USAo9-33" value="" style="endArrow=classic;html=1;rounded=0;entryX=0;entryY=0.167;entryDx=0;entryDy=0;entryPerimeter=0;exitX=0;exitY=0.167;exitDx=0;exitDy=0;exitPerimeter=0;" parent="1" source="SE39QQxyjO5Wag_USAo9-32" edge="1">
          <mxGeometry width="50" height="50" relative="1" as="geometry">
            <mxPoint x="1510" y="230" as="sourcePoint" />
            <mxPoint x="1350" y="230" as="targetPoint" />
          </mxGeometry>
        </mxCell>
        <mxCell id="SE39QQxyjO5Wag_USAo9-34" value="" style="endArrow=classic;html=1;rounded=0;entryX=0;entryY=0.167;entryDx=0;entryDy=0;entryPerimeter=0;" parent="1" edge="1">
          <mxGeometry width="50" height="50" relative="1" as="geometry">
            <mxPoint x="1350" y="270" as="sourcePoint" />
            <mxPoint x="1520" y="270" as="targetPoint" />
          </mxGeometry>
        </mxCell>
        <mxCell id="SE39QQxyjO5Wag_USAo9-35" value="" style="endArrow=none;dashed=1;html=1;rounded=0;" parent="1" edge="1">
          <mxGeometry width="50" height="50" relative="1" as="geometry">
            <mxPoint x="1440" y="230" as="sourcePoint" />
            <mxPoint x="1440" y="180" as="targetPoint" />
          </mxGeometry>
        </mxCell>
        <mxCell id="SE39QQxyjO5Wag_USAo9-36" value="" style="endArrow=none;dashed=1;html=1;rounded=0;" parent="1" edge="1">
          <mxGeometry width="50" height="50" relative="1" as="geometry">
            <mxPoint x="1440" y="320" as="sourcePoint" />
            <mxPoint x="1440" y="270" as="targetPoint" />
          </mxGeometry>
        </mxCell>
        <mxCell id="SE39QQxyjO5Wag_USAo9-37" value="Message&lt;div&gt;type = FOLLOW&lt;/div&gt;&lt;div&gt;payload =&lt;/div&gt;" style="rounded=0;whiteSpace=wrap;html=1;" parent="1" vertex="1">
          <mxGeometry x="1380" y="310" width="120" height="60" as="geometry" />
        </mxCell>
        <mxCell id="SE39QQxyjO5Wag_USAo9-38" value="Message&lt;div&gt;type = REQUEST_RESULT&lt;/div&gt;&lt;div&gt;payload =&amp;nbsp;&lt;/div&gt;" style="rounded=0;whiteSpace=wrap;html=1;" parent="1" vertex="1">
          <mxGeometry x="1380" y="120" width="150" height="60" as="geometry" />
        </mxCell>
        <mxCell id="SE39QQxyjO5Wag_USAo9-39" value="PayloadClientRequest&lt;div&gt;clientIDSource = 0&lt;/div&gt;&lt;div&gt;clientIDDestination = 1&lt;/div&gt;" style="rounded=0;whiteSpace=wrap;html=1;" parent="1" vertex="1">
          <mxGeometry x="1270" y="400" width="180" height="60" as="geometry" />
        </mxCell>
        <mxCell id="SE39QQxyjO5Wag_USAo9-40" value="" style="endArrow=none;dashed=1;html=1;rounded=0;exitX=1;exitY=0;exitDx=0;exitDy=0;" parent="1" source="SE39QQxyjO5Wag_USAo9-39" edge="1">
          <mxGeometry width="50" height="50" relative="1" as="geometry">
            <mxPoint x="1290" y="409.99999999999994" as="sourcePoint" />
            <mxPoint x="1481.08" y="356.34" as="targetPoint" />
          </mxGeometry>
        </mxCell>
        <mxCell id="SE39QQxyjO5Wag_USAo9-41" value="" style="endArrow=none;dashed=1;html=1;rounded=0;" parent="1" edge="1">
          <mxGeometry width="50" height="50" relative="1" as="geometry">
            <mxPoint x="1490" y="170" as="sourcePoint" />
            <mxPoint x="1540" y="80" as="targetPoint" />
          </mxGeometry>
        </mxCell>
        <mxCell id="SE39QQxyjO5Wag_USAo9-42" value="PayloadRequestResult&lt;div&gt;code = 0&lt;/div&gt;" style="rounded=0;whiteSpace=wrap;html=1;" parent="1" vertex="1">
          <mxGeometry x="1520" y="20" width="180" height="60" as="geometry" />
        </mxCell>
        <mxCell id="SE39QQxyjO5Wag_USAo9-43" value="Unfollow(1)" style="text;html=1;align=center;verticalAlign=middle;whiteSpace=wrap;rounded=0;" parent="1" vertex="1">
          <mxGeometry x="1800" y="80" width="60" height="30" as="geometry" />
        </mxCell>
        <mxCell id="SE39QQxyjO5Wag_USAo9-44" value="Client" style="rounded=0;whiteSpace=wrap;html=1;" parent="1" vertex="1">
          <mxGeometry x="1790" y="230" width="120" height="60" as="geometry" />
        </mxCell>
        <mxCell id="SE39QQxyjO5Wag_USAo9-45" value="Server" style="rounded=0;whiteSpace=wrap;html=1;" parent="1" vertex="1">
          <mxGeometry x="2080" y="230" width="120" height="60" as="geometry" />
        </mxCell>
        <mxCell id="SE39QQxyjO5Wag_USAo9-46" value="" style="endArrow=classic;html=1;rounded=0;entryX=0;entryY=0.167;entryDx=0;entryDy=0;entryPerimeter=0;exitX=0;exitY=0.167;exitDx=0;exitDy=0;exitPerimeter=0;" parent="1" source="SE39QQxyjO5Wag_USAo9-45" edge="1">
          <mxGeometry width="50" height="50" relative="1" as="geometry">
            <mxPoint x="2070" y="240" as="sourcePoint" />
            <mxPoint x="1910" y="240" as="targetPoint" />
          </mxGeometry>
        </mxCell>
        <mxCell id="SE39QQxyjO5Wag_USAo9-47" value="" style="endArrow=classic;html=1;rounded=0;entryX=0;entryY=0.167;entryDx=0;entryDy=0;entryPerimeter=0;" parent="1" edge="1">
          <mxGeometry width="50" height="50" relative="1" as="geometry">
            <mxPoint x="1910" y="280" as="sourcePoint" />
            <mxPoint x="2080" y="280" as="targetPoint" />
          </mxGeometry>
        </mxCell>
        <mxCell id="SE39QQxyjO5Wag_USAo9-48" value="" style="endArrow=none;dashed=1;html=1;rounded=0;" parent="1" edge="1">
          <mxGeometry width="50" height="50" relative="1" as="geometry">
            <mxPoint x="1940" y="240" as="sourcePoint" />
            <mxPoint x="1940" y="190" as="targetPoint" />
          </mxGeometry>
        </mxCell>
        <mxCell id="SE39QQxyjO5Wag_USAo9-49" value="" style="endArrow=none;dashed=1;html=1;rounded=0;" parent="1" edge="1">
          <mxGeometry width="50" height="50" relative="1" as="geometry">
            <mxPoint x="2450" y="330" as="sourcePoint" />
            <mxPoint x="2450" y="280" as="targetPoint" />
          </mxGeometry>
        </mxCell>
        <mxCell id="SE39QQxyjO5Wag_USAo9-50" value="Message&lt;div&gt;type = UNFOLLOW&lt;/div&gt;&lt;div&gt;payload =&lt;/div&gt;" style="rounded=0;whiteSpace=wrap;html=1;" parent="1" vertex="1">
          <mxGeometry x="2390" y="310" width="120" height="60" as="geometry" />
        </mxCell>
        <mxCell id="SE39QQxyjO5Wag_USAo9-51" value="Message&lt;div&gt;type = GET_CLIENT_GRAPH&lt;/div&gt;&lt;div&gt;payload =&amp;nbsp;&lt;/div&gt;" style="rounded=0;whiteSpace=wrap;html=1;" parent="1" vertex="1">
          <mxGeometry x="1880" y="130" width="190" height="60" as="geometry" />
        </mxCell>
        <mxCell id="SE39QQxyjO5Wag_USAo9-52" value="PayloadClientRequest&lt;div&gt;clientIDSource = 0&lt;/div&gt;&lt;div&gt;clientIDDestination = 1&lt;/div&gt;" style="rounded=0;whiteSpace=wrap;html=1;" parent="1" vertex="1">
          <mxGeometry x="2520" y="400" width="180" height="60" as="geometry" />
        </mxCell>
        <mxCell id="SE39QQxyjO5Wag_USAo9-53" value="" style="endArrow=none;dashed=1;html=1;rounded=0;exitX=-0.006;exitY=0.061;exitDx=0;exitDy=0;exitPerimeter=0;" parent="1" source="SE39QQxyjO5Wag_USAo9-52" edge="1">
          <mxGeometry width="50" height="50" relative="1" as="geometry">
            <mxPoint x="2510" y="410" as="sourcePoint" />
            <mxPoint x="2470" y="360" as="targetPoint" />
          </mxGeometry>
        </mxCell>
        <mxCell id="SE39QQxyjO5Wag_USAo9-54" value="" style="endArrow=none;dashed=1;html=1;rounded=0;" parent="1" edge="1">
          <mxGeometry width="50" height="50" relative="1" as="geometry">
            <mxPoint x="1990" y="175" as="sourcePoint" />
            <mxPoint x="2040" y="85" as="targetPoint" />
          </mxGeometry>
        </mxCell>
        <mxCell id="SE39QQxyjO5Wag_USAo9-55" value="PayloadClientGraph&lt;div&gt;followers&lt;/div&gt;&lt;div&gt;followings&lt;/div&gt;" style="rounded=0;whiteSpace=wrap;html=1;" parent="1" vertex="1">
          <mxGeometry x="2020" y="30" width="140" height="60" as="geometry" />
        </mxCell>
        <mxCell id="3f6Fsm87vDXDovWyxHgs-4" value="Client" style="rounded=0;whiteSpace=wrap;html=1;" parent="1" vertex="1">
          <mxGeometry x="1520" y="410" width="120" height="60" as="geometry" />
        </mxCell>
        <mxCell id="3f6Fsm87vDXDovWyxHgs-5" value="" style="endArrow=classic;html=1;rounded=0;exitX=0.5;exitY=0;exitDx=0;exitDy=0;" parent="1" source="3f6Fsm87vDXDovWyxHgs-4" target="SE39QQxyjO5Wag_USAo9-32" edge="1">
          <mxGeometry width="50" height="50" relative="1" as="geometry">
            <mxPoint x="1570" y="410" as="sourcePoint" />
            <mxPoint x="1740" y="410" as="targetPoint" />
          </mxGeometry>
        </mxCell>
        <mxCell id="3f6Fsm87vDXDovWyxHgs-6" value="" style="endArrow=none;dashed=1;html=1;rounded=0;" parent="1" edge="1">
          <mxGeometry width="50" height="50" relative="1" as="geometry">
            <mxPoint x="1579.5" y="350" as="sourcePoint" />
            <mxPoint x="1630" y="350" as="targetPoint" />
          </mxGeometry>
        </mxCell>
        <mxCell id="3f6Fsm87vDXDovWyxHgs-7" value="Message&lt;div&gt;type = ACCEPT&lt;/div&gt;&lt;div&gt;payload =&lt;/div&gt;" style="rounded=0;whiteSpace=wrap;html=1;" parent="1" vertex="1">
          <mxGeometry x="1630" y="320" width="120" height="60" as="geometry" />
        </mxCell>
        <mxCell id="3f6Fsm87vDXDovWyxHgs-8" value="" style="endArrow=none;dashed=1;html=1;rounded=0;exitX=-0.006;exitY=0.061;exitDx=0;exitDy=0;exitPerimeter=0;" parent="1" edge="1">
          <mxGeometry width="50" height="50" relative="1" as="geometry">
            <mxPoint x="1719" y="364" as="sourcePoint" />
            <mxPoint x="1730" y="430" as="targetPoint" />
          </mxGeometry>
        </mxCell>
        <mxCell id="3f6Fsm87vDXDovWyxHgs-10" value="PayloadClientRequest&lt;div&gt;clientIDSource = 0&lt;/div&gt;&lt;div&gt;clientIDDestination = 1&lt;/div&gt;" style="rounded=0;whiteSpace=wrap;html=1;" parent="1" vertex="1">
          <mxGeometry x="1690" y="430" width="180" height="60" as="geometry" />
        </mxCell>
        <mxCell id="3f6Fsm87vDXDovWyxHgs-11" value="&lt;div&gt;Profile_31clientX.txt&lt;/div&gt;clientID posted Photo_name&lt;div&gt;&lt;br&gt;&lt;/div&gt;" style="rounded=0;whiteSpace=wrap;html=1;" parent="1" vertex="1">
          <mxGeometry x="430" y="1040" width="230" height="60" as="geometry" />
        </mxCell>
        <mxCell id="3f6Fsm87vDXDovWyxHgs-12" value="Upload Photo: Copy image in his local directory" style="rounded=0;whiteSpace=wrap;html=1;" parent="1" vertex="1">
          <mxGeometry x="590" y="890" width="290" height="60" as="geometry" />
        </mxCell>
        <mxCell id="7ZdtX3iZyfMwZNY8Ki4L-1" value="" style="endArrow=none;dashed=1;html=1;rounded=0;" parent="1" edge="1">
          <mxGeometry width="50" height="50" relative="1" as="geometry">
            <mxPoint x="1940" y="330" as="sourcePoint" />
            <mxPoint x="1940" y="280" as="targetPoint" />
          </mxGeometry>
        </mxCell>
        <mxCell id="7ZdtX3iZyfMwZNY8Ki4L-2" value="Message&lt;div&gt;type = GET_CLIENT_GRAPH&lt;/div&gt;&lt;div&gt;payload =&lt;/div&gt;" style="rounded=0;whiteSpace=wrap;html=1;" parent="1" vertex="1">
          <mxGeometry x="1810" y="320" width="170" height="60" as="geometry" />
        </mxCell>
        <mxCell id="7ZdtX3iZyfMwZNY8Ki4L-3" value="PayloadUserID&lt;br&gt;&lt;div&gt;clientID = 0&lt;/div&gt;" style="rounded=0;whiteSpace=wrap;html=1;" parent="1" vertex="1">
          <mxGeometry x="1970" y="400" width="180" height="60" as="geometry" />
        </mxCell>
        <mxCell id="7ZdtX3iZyfMwZNY8Ki4L-4" value="" style="endArrow=none;dashed=1;html=1;rounded=0;exitX=-0.006;exitY=0.061;exitDx=0;exitDy=0;exitPerimeter=0;" parent="1" source="7ZdtX3iZyfMwZNY8Ki4L-3" edge="1">
          <mxGeometry width="50" height="50" relative="1" as="geometry">
            <mxPoint x="2000" y="410" as="sourcePoint" />
            <mxPoint x="1960" y="360" as="targetPoint" />
          </mxGeometry>
        </mxCell>
        <mxCell id="7ZdtX3iZyfMwZNY8Ki4L-14" value="Client" style="rounded=0;whiteSpace=wrap;html=1;" parent="1" vertex="1">
          <mxGeometry x="2560" y="230" width="120" height="60" as="geometry" />
        </mxCell>
        <mxCell id="7ZdtX3iZyfMwZNY8Ki4L-15" value="" style="endArrow=classic;html=1;rounded=0;entryX=0;entryY=0.167;entryDx=0;entryDy=0;entryPerimeter=0;" parent="1" edge="1">
          <mxGeometry width="50" height="50" relative="1" as="geometry">
            <mxPoint x="2560" y="280" as="sourcePoint" />
            <mxPoint x="2390" y="280" as="targetPoint" />
          </mxGeometry>
        </mxCell>
        <mxCell id="7ZdtX3iZyfMwZNY8Ki4L-16" value="" style="endArrow=classic;html=1;rounded=0;entryX=0;entryY=0.167;entryDx=0;entryDy=0;entryPerimeter=0;exitX=0;exitY=0.167;exitDx=0;exitDy=0;exitPerimeter=0;" parent="1" edge="1">
          <mxGeometry width="50" height="50" relative="1" as="geometry">
            <mxPoint x="2390" y="239.5" as="sourcePoint" />
            <mxPoint x="2560" y="239.5" as="targetPoint" />
          </mxGeometry>
        </mxCell>
        <mxCell id="7ZdtX3iZyfMwZNY8Ki4L-17" value="" style="endArrow=none;dashed=1;html=1;rounded=0;" parent="1" edge="1">
          <mxGeometry width="50" height="50" relative="1" as="geometry">
            <mxPoint x="2440" y="235" as="sourcePoint" />
            <mxPoint x="2440" y="185" as="targetPoint" />
          </mxGeometry>
        </mxCell>
        <mxCell id="7ZdtX3iZyfMwZNY8Ki4L-18" value="Message&lt;div&gt;type = GET_CLIENT_GRAPH&lt;/div&gt;&lt;div&gt;payload =&amp;nbsp;&lt;/div&gt;" style="rounded=0;whiteSpace=wrap;html=1;" parent="1" vertex="1">
          <mxGeometry x="2380" y="125" width="190" height="60" as="geometry" />
        </mxCell>
        <mxCell id="7ZdtX3iZyfMwZNY8Ki4L-19" value="" style="endArrow=none;dashed=1;html=1;rounded=0;" parent="1" edge="1">
          <mxGeometry width="50" height="50" relative="1" as="geometry">
            <mxPoint x="2490" y="170" as="sourcePoint" />
            <mxPoint x="2540" y="80" as="targetPoint" />
          </mxGeometry>
        </mxCell>
        <mxCell id="7ZdtX3iZyfMwZNY8Ki4L-20" value="PayloadClientGraph&lt;div&gt;followings&lt;/div&gt;" style="rounded=0;whiteSpace=wrap;html=1;" parent="1" vertex="1">
          <mxGeometry x="2520" y="25" width="140" height="60" as="geometry" />
        </mxCell>
        <mxCell id="8QC6z4XXP87Rxpby4hnb-3" value="Client" style="rounded=0;whiteSpace=wrap;html=1;" parent="1" vertex="1">
          <mxGeometry x="1210" y="720" width="120" height="60" as="geometry" />
        </mxCell>
        <mxCell id="8QC6z4XXP87Rxpby4hnb-4" value="Server" style="rounded=0;whiteSpace=wrap;html=1;" parent="1" vertex="1">
          <mxGeometry x="1500" y="720" width="120" height="60" as="geometry" />
        </mxCell>
        <mxCell id="8QC6z4XXP87Rxpby4hnb-5" value="" style="endArrow=classic;html=1;rounded=0;entryX=0;entryY=0.167;entryDx=0;entryDy=0;entryPerimeter=0;exitX=0;exitY=0.167;exitDx=0;exitDy=0;exitPerimeter=0;" parent="1" source="8QC6z4XXP87Rxpby4hnb-4" edge="1">
          <mxGeometry width="50" height="50" relative="1" as="geometry">
            <mxPoint x="1490" y="730" as="sourcePoint" />
            <mxPoint x="1330" y="730" as="targetPoint" />
          </mxGeometry>
        </mxCell>
        <mxCell id="8QC6z4XXP87Rxpby4hnb-6" value="" style="endArrow=classic;html=1;rounded=0;entryX=0;entryY=0.167;entryDx=0;entryDy=0;entryPerimeter=0;" parent="1" edge="1">
          <mxGeometry width="50" height="50" relative="1" as="geometry">
            <mxPoint x="1330" y="770" as="sourcePoint" />
            <mxPoint x="1500" y="770" as="targetPoint" />
          </mxGeometry>
        </mxCell>
        <mxCell id="8QC6z4XXP87Rxpby4hnb-7" value="" style="endArrow=none;dashed=1;html=1;rounded=0;" parent="1" edge="1">
          <mxGeometry width="50" height="50" relative="1" as="geometry">
            <mxPoint x="1420" y="730" as="sourcePoint" />
            <mxPoint x="1420" y="680" as="targetPoint" />
          </mxGeometry>
        </mxCell>
        <mxCell id="8QC6z4XXP87Rxpby4hnb-8" value="" style="endArrow=none;dashed=1;html=1;rounded=0;" parent="1" edge="1">
          <mxGeometry width="50" height="50" relative="1" as="geometry">
            <mxPoint x="1420" y="820" as="sourcePoint" />
            <mxPoint x="1420" y="770" as="targetPoint" />
          </mxGeometry>
        </mxCell>
        <mxCell id="8QC6z4XXP87Rxpby4hnb-9" value="Message&lt;div&gt;type = DOWNLOAD&lt;/div&gt;&lt;div&gt;payload =&lt;/div&gt;" style="rounded=0;whiteSpace=wrap;html=1;" parent="1" vertex="1">
          <mxGeometry x="1340" y="810" width="140" height="60" as="geometry" />
        </mxCell>
        <mxCell id="8QC6z4XXP87Rxpby4hnb-10" value="BufferedImage" style="rounded=0;whiteSpace=wrap;html=1;" parent="1" vertex="1">
          <mxGeometry x="1350" y="620" width="130" height="60" as="geometry" />
        </mxCell>
        <mxCell id="8QC6z4XXP87Rxpby4hnb-11" value="PayloadSynchronization&lt;br&gt;&lt;div&gt;filePathToSyncrhonize.image&lt;/div&gt;&lt;div&gt;&lt;br&gt;&lt;/div&gt;&lt;div&gt;&lt;br&gt;&lt;/div&gt;" style="rounded=0;whiteSpace=wrap;html=1;" parent="1" vertex="1">
          <mxGeometry x="1490" y="890" width="180" height="60" as="geometry" />
        </mxCell>
        <mxCell id="8QC6z4XXP87Rxpby4hnb-12" value="" style="endArrow=none;dashed=1;html=1;rounded=0;exitX=-0.006;exitY=0.061;exitDx=0;exitDy=0;exitPerimeter=0;" parent="1" source="8QC6z4XXP87Rxpby4hnb-11" edge="1">
          <mxGeometry width="50" height="50" relative="1" as="geometry">
            <mxPoint x="1480" y="900" as="sourcePoint" />
            <mxPoint x="1440" y="850" as="targetPoint" />
          </mxGeometry>
        </mxCell>
        <mxCell id="8QC6z4XXP87Rxpby4hnb-15" value="Server" style="rounded=0;whiteSpace=wrap;html=1;" parent="1" vertex="1">
          <mxGeometry x="2270" y="230" width="120" height="60" as="geometry" />
        </mxCell>
        <mxCell id="8QC6z4XXP87Rxpby4hnb-17" value="Synchronize(i) for case image and text" style="text;html=1;align=center;verticalAlign=middle;whiteSpace=wrap;rounded=0;" parent="1" vertex="1">
          <mxGeometry x="1230" y="550" width="160" height="55" as="geometry" />
        </mxCell>
        <mxCell id="8QC6z4XXP87Rxpby4hnb-18" value="Unfollow(2)" style="text;html=1;align=center;verticalAlign=middle;whiteSpace=wrap;rounded=0;" parent="1" vertex="1">
          <mxGeometry x="2280" y="70" width="60" height="30" as="geometry" />
        </mxCell>
        <mxCell id="3Dv7cCXRTJCWaC9GO4HH-22" value="i = ith file to syncrhonize&lt;div&gt;we assume files are transfered in one chunk here&lt;/div&gt;" style="text;html=1;align=center;verticalAlign=middle;whiteSpace=wrap;rounded=0;" parent="1" vertex="1">
          <mxGeometry x="1280" y="490" width="230" height="30" as="geometry" />
        </mxCell>
        <mxCell id="3Dv7cCXRTJCWaC9GO4HH-23" value="Client" style="rounded=0;whiteSpace=wrap;html=1;" parent="1" vertex="1">
          <mxGeometry x="1220" y="1070" width="120" height="60" as="geometry" />
        </mxCell>
        <mxCell id="3Dv7cCXRTJCWaC9GO4HH-24" value="Server" style="rounded=0;whiteSpace=wrap;html=1;" parent="1" vertex="1">
          <mxGeometry x="1510" y="1070" width="120" height="60" as="geometry" />
        </mxCell>
        <mxCell id="3Dv7cCXRTJCWaC9GO4HH-25" value="" style="endArrow=classic;html=1;rounded=0;entryX=0;entryY=0.167;entryDx=0;entryDy=0;entryPerimeter=0;exitX=0;exitY=0.167;exitDx=0;exitDy=0;exitPerimeter=0;" parent="1" source="3Dv7cCXRTJCWaC9GO4HH-24" edge="1">
          <mxGeometry width="50" height="50" relative="1" as="geometry">
            <mxPoint x="1500" y="1080" as="sourcePoint" />
            <mxPoint x="1340" y="1080" as="targetPoint" />
          </mxGeometry>
        </mxCell>
        <mxCell id="3Dv7cCXRTJCWaC9GO4HH-26" value="" style="endArrow=classic;html=1;rounded=0;entryX=0;entryY=0.167;entryDx=0;entryDy=0;entryPerimeter=0;" parent="1" edge="1">
          <mxGeometry width="50" height="50" relative="1" as="geometry">
            <mxPoint x="1340" y="1120" as="sourcePoint" />
            <mxPoint x="1510" y="1120" as="targetPoint" />
          </mxGeometry>
        </mxCell>
        <mxCell id="3Dv7cCXRTJCWaC9GO4HH-27" value="" style="endArrow=none;dashed=1;html=1;rounded=0;" parent="1" edge="1">
          <mxGeometry width="50" height="50" relative="1" as="geometry">
            <mxPoint x="1430" y="1080" as="sourcePoint" />
            <mxPoint x="1430" y="1030" as="targetPoint" />
          </mxGeometry>
        </mxCell>
        <mxCell id="3Dv7cCXRTJCWaC9GO4HH-28" value="" style="endArrow=none;dashed=1;html=1;rounded=0;" parent="1" edge="1">
          <mxGeometry width="50" height="50" relative="1" as="geometry">
            <mxPoint x="1430" y="1170" as="sourcePoint" />
            <mxPoint x="1430" y="1120" as="targetPoint" />
          </mxGeometry>
        </mxCell>
        <mxCell id="3Dv7cCXRTJCWaC9GO4HH-29" value="Message&lt;div&gt;type = DOWNLOAD&lt;/div&gt;&lt;div&gt;payload =&lt;/div&gt;" style="rounded=0;whiteSpace=wrap;html=1;" parent="1" vertex="1">
          <mxGeometry x="1350" y="1160" width="140" height="60" as="geometry" />
        </mxCell>
        <mxCell id="3Dv7cCXRTJCWaC9GO4HH-30" value="byte[] Text File" style="rounded=0;whiteSpace=wrap;html=1;" parent="1" vertex="1">
          <mxGeometry x="1360" y="970" width="130" height="60" as="geometry" />
        </mxCell>
        <mxCell id="3Dv7cCXRTJCWaC9GO4HH-31" value="PayloadSynchronization&lt;br&gt;&lt;div&gt;filePathToSyncrhonize.text&lt;/div&gt;&lt;div&gt;&lt;br&gt;&lt;/div&gt;&lt;div&gt;&lt;br&gt;&lt;/div&gt;" style="rounded=0;whiteSpace=wrap;html=1;" parent="1" vertex="1">
          <mxGeometry x="1500" y="1240" width="180" height="60" as="geometry" />
        </mxCell>
        <mxCell id="3Dv7cCXRTJCWaC9GO4HH-32" value="" style="endArrow=none;dashed=1;html=1;rounded=0;exitX=-0.006;exitY=0.061;exitDx=0;exitDy=0;exitPerimeter=0;" parent="1" source="3Dv7cCXRTJCWaC9GO4HH-31" edge="1">
          <mxGeometry width="50" height="50" relative="1" as="geometry">
            <mxPoint x="1490" y="1250" as="sourcePoint" />
            <mxPoint x="1450" y="1200" as="targetPoint" />
          </mxGeometry>
        </mxCell>
        <mxCell id="3Dv7cCXRTJCWaC9GO4HH-34" value="Client" style="rounded=0;whiteSpace=wrap;html=1;" parent="1" vertex="1">
          <mxGeometry x="1720" y="720" width="120" height="60" as="geometry" />
        </mxCell>
        <mxCell id="3Dv7cCXRTJCWaC9GO4HH-35" value="Server" style="rounded=0;whiteSpace=wrap;html=1;" parent="1" vertex="1">
          <mxGeometry x="2010" y="720" width="120" height="60" as="geometry" />
        </mxCell>
        <mxCell id="3Dv7cCXRTJCWaC9GO4HH-36" value="" style="endArrow=classic;html=1;rounded=0;entryX=0;entryY=0.167;entryDx=0;entryDy=0;entryPerimeter=0;exitX=0;exitY=0.167;exitDx=0;exitDy=0;exitPerimeter=0;" parent="1" source="3Dv7cCXRTJCWaC9GO4HH-35" edge="1">
          <mxGeometry width="50" height="50" relative="1" as="geometry">
            <mxPoint x="2000" y="730" as="sourcePoint" />
            <mxPoint x="1840" y="730" as="targetPoint" />
          </mxGeometry>
        </mxCell>
        <mxCell id="3Dv7cCXRTJCWaC9GO4HH-37" value="" style="endArrow=classic;html=1;rounded=0;entryX=0;entryY=0.167;entryDx=0;entryDy=0;entryPerimeter=0;" parent="1" edge="1">
          <mxGeometry width="50" height="50" relative="1" as="geometry">
            <mxPoint x="1840" y="770" as="sourcePoint" />
            <mxPoint x="2010" y="770" as="targetPoint" />
          </mxGeometry>
        </mxCell>
        <mxCell id="3Dv7cCXRTJCWaC9GO4HH-38" value="" style="endArrow=none;dashed=1;html=1;rounded=0;" parent="1" edge="1">
          <mxGeometry width="50" height="50" relative="1" as="geometry">
            <mxPoint x="1930" y="730" as="sourcePoint" />
            <mxPoint x="1930" y="680" as="targetPoint" />
          </mxGeometry>
        </mxCell>
        <mxCell id="3Dv7cCXRTJCWaC9GO4HH-39" value="" style="endArrow=none;dashed=1;html=1;rounded=0;" parent="1" edge="1">
          <mxGeometry width="50" height="50" relative="1" as="geometry">
            <mxPoint x="1930" y="820" as="sourcePoint" />
            <mxPoint x="1930" y="770" as="targetPoint" />
          </mxGeometry>
        </mxCell>
        <mxCell id="3Dv7cCXRTJCWaC9GO4HH-40" value="Message&lt;div&gt;type = DOWNLOAD&lt;/div&gt;&lt;div&gt;payload =&lt;/div&gt;" style="rounded=0;whiteSpace=wrap;html=1;" parent="1" vertex="1">
          <mxGeometry x="1850" y="810" width="140" height="60" as="geometry" />
        </mxCell>
        <mxCell id="3Dv7cCXRTJCWaC9GO4HH-41" value="BufferedImage" style="rounded=0;whiteSpace=wrap;html=1;" parent="1" vertex="1">
          <mxGeometry x="1860" y="620" width="130" height="60" as="geometry" />
        </mxCell>
        <mxCell id="3Dv7cCXRTJCWaC9GO4HH-42" value="PayloadSynchronization&lt;br&gt;&lt;div&gt;filePathToSyncrhonize&lt;/div&gt;&lt;div&gt;&lt;br&gt;&lt;/div&gt;&lt;div&gt;&lt;br&gt;&lt;/div&gt;" style="rounded=0;whiteSpace=wrap;html=1;" parent="1" vertex="1">
          <mxGeometry x="2000" y="890" width="180" height="60" as="geometry" />
        </mxCell>
        <mxCell id="3Dv7cCXRTJCWaC9GO4HH-43" value="" style="endArrow=none;dashed=1;html=1;rounded=0;exitX=-0.006;exitY=0.061;exitDx=0;exitDy=0;exitPerimeter=0;" parent="1" source="3Dv7cCXRTJCWaC9GO4HH-42" edge="1">
          <mxGeometry width="50" height="50" relative="1" as="geometry">
            <mxPoint x="1990" y="900" as="sourcePoint" />
            <mxPoint x="1950" y="850" as="targetPoint" />
          </mxGeometry>
        </mxCell>
      </root>
    </mxGraphModel>
  </diagram>
</mxfile>
